# AST/ASF file generated using VICON BodyLanguage
# -----------------------------------------------
:version 1.10
:name VICON
:units
  mass 1.0
  length 0.45
  angle deg
:documentation
   .ast/.asf automatically generated from VICON data using
   VICON BodyBuilder and BodyLanguage model FoxedUp or BRILLIANT.MOD
:root
   order TX TY TZ RX RY RZ
   axis XYZ
   position 0 0 0  
   orientation 0 0 0 
:bonedata
  begin
     id 1 
     name lhipjoint
     direction 0.714689 -0.624256 0.315473 
     length 2.45343 
     axis 0 0 0  XYZ
  end
  begin
     id 2 
     name lfemur
     direction 0.34202 -0.939693 0  
     length 6.59069  
     axis 0 0 20  XYZ
    dof rx ry rz
    limits (-160.0 20.0)
           (-70.0 70.0)
           (-60.0 70.0)
  end
  begin
     id 3 
     name ltibia
     direction 0.34202 -0.939693 0   
     length 6.73476   
     axis 0 0 20   XYZ
    dof rx
    limits (-10.0 170.0)
  end
  begin
     id 4 
     name lfoot
     direction 0.0718085 -0.197292 0.977711   
     length 1.52607   
     axis -90 7.62852e-016 20   XYZ
    dof rx rz
    limits (-45.0 90.0)
           (-70.0 20.0)
  end
  begin
     id 5 
     name ltoes
     direction 1.53553e-011 -4.22024e-011 1   
     length 0.777832   
     axis -90 7.62852e-016 20   XYZ
    dof rx
    limits (-90.0 20.0)
  end
  begin
     id 6 
     name rhipjoint
     direction -0.727419 -0.612432 0.309497   
     length 2.50079  
     axis 0 0 0  XYZ 
  end
  begin
     id 7 
     name rfemur
     direction -0.34202 -0.939693 0   
     length 6.51665   
     axis 0 0 -20   XYZ
    dof rx ry rz
    limits (-160.0 20.0)
           (-70.0 70.0)
           (-70.0 60.0)
  end
  begin
     id 8 
     name rtibia
     direction -0.34202 -0.939693 0   
     length 6.48919   
     axis 0 0 -20   XYZ
    dof rx
    limits (-10.0 170.0)
 end
 begin
     id 9 
     name rfoot
     direction -0.112205 -0.308282 0.944655   
     length 1.68717  
     axis -90 -7.62852e-016 -20   XYZ
    dof rx rz
    limits (-45.0 90.0)
           (-20.0 70.0)
  end
  begin
     id 10 
     name rtoes
     direction -1.53583e-011 -4.21993e-011 1   
     length 0.846859   
     axis -90 -7.62852e-016 -20   XYZ
    dof rx
    limits (-90.0 20.0)
  end
  begin
     id 11 
     name lowerback
     direction -0.00119603 0.996364 -0.0851956   
     length 1.67242   
     axis 0 0 0   XYZ
    dof rx ry rz
    limits (-20.0 45.0)
           (-30.0 30.0)
           (-30.0 30.0)
  end
  begin
     id 12 
     name upperback
     direction -0.00531001 0.998318 0.0577248   
     length 1.64819   
     axis 0 0 0   XYZ
    dof rx ry rz
    limits (-20.0 45.0)
           (-30.0 30.0)
           (-30.0 30.0)
  end
  begin
     id 13 
     name thorax
     direction -0.00653676 0.995132 0.0983291   
     length 1.67429   
     axis 0 0 0   XYZ
    dof rx ry rz
    limits (-20.0 45.0)
           (-30.0 30.0)
           (-30.0 30.0)
  end
  begin
     id 14 
     name lowerneck
     direction 0.0141424 0.999886 0.00525412   
     length 1.59623   
     axis 0 0 0   XYZ
    dof rx ry rz
    limits (-20.0 45.0)
           (-30.0 30.0)
           (-30.0 30.0)
  end
  begin
     id 15 
     name upperneck
     direction -0.0640064 0.987178 -0.146232   
     length 1.59576   
     axis 0 0 0   XYZ
    dof rx ry rz
    limits (-20.0 45.0)
           (-30.0 30.0)
           (-30.0 30.0)
  end
  begin
     id 16
     name head
     direction -0.0222942 0.998496 -0.0500859  
     length 1.60959  
     axis 0 0 0   XYZ
    dof rx ry rz
    limits (-20.0 45.0)
           (-30.0 30.0)
           (-30.0 30.0)
  end
  begin
     id 17 
     name lclavicle
     direction 0.908549 0.392612 0.142806  
     length 2.80649  
     axis 0 0 0   XYZ
    dof ry rz
    limits (-20.0 10.0)
           (0.0 20.0)
  end
  begin
     id 18 
     name lhumerus
     direction 1 -4.48968e-011 1.08832e-028   
     length 4.2884   
     axis -180 -30 -90   XYZ
    dof rx ry rz
    limits (-60.0 90.0)
           (-90.0 90.0)
           (-90.0 90.0)
  end
  begin
     id 19
     name lradius
     direction 1 -4.48952e-011 -3.02642e-028   
     length 3.06552   
     axis -180 -30 -90   XYZ
    dof rx
    limits (-10.0 170.0)
  end
  begin
     id 20
     name lwrist
     direction 1 -4.49014e-011 1.58672e-027   
     length 1.53276   
     axis -1.65735e-015 90 90   XYZ
    dof ry
    limits (-180.0 0.0)
 end
  begin
     id 21 
     name lhand
     direction 1 -4.48928e-011 3.17344e-027   
     length 0.753045   
     axis -2.02492e-015 90 90   XYZ
    dof rx rz
    limits (-90.0 90.0)
           (-45.0 45.0)
  end
  begin
     id 22 
     name lfingers
     direction 1 -4.48958e-011 6.34687e-027   
     length 0.607124   
     axis -4.04985e-015 90 90   XYZ
    dof rx
    limits (0.0 90.0)
  end
  begin
     id 23
     name lthumb
     direction 0.707107 -6.34905e-011 0.707107   
     length 0.871712   
     axis -90 45 2.85299e-015   XYZ
    dof rx rz
    limits (-45.0 45.0)
           (-45.0 45.0)
  end
  begin
     id 24 
     name rclavicle
     direction -0.885098 0.45949 0.0739604   
     length 2.9478  
     axis 0 0 0   XYZ 
    dof ry rz
    limits (-10.0 20.0)
           (-20.0 0.0)
  end
  begin
     id 25 
     name rhumerus
     direction -1 -4.4898e-011 -2.61739e-027  
     length 4.52172   
     axis -180 30 90   XYZ
    dof rx ry rz
    limits (-90.0 60.0)
           (-90.0 90.0)
           (-90.0 90.0)
  end
  begin
     id 26 
     name rradius
     direction -1 -4.48945e-011 9.02552e-028   
     length 2.8914   
     axis -180 30 90   XYZ
    dof rx
    limits (-10.0 170.0)
  end
  begin
     id 27 
     name rwrist
     direction -1 -4.49018e-011 1.58672e-027   
     length 1.4457   
     axis -1.65735e-015 -90 -90   XYZ
    dof ry
    limits (-180.0 0.0)
  end
  begin
     id 28
     name rhand
     direction -1 -4.48825e-011 3.17344e-027   
     length 0.680541   
     axis -2.02492e-015 -90 -90   XYZ
    dof rx rz
    limits (-90.0 90.0)
           (-45.0 45.0)
  end
  begin
     id 29
     name rfingers
     direction -1 -4.49067e-011 6.34687e-027   
     length 0.54867   
     axis -4.04985e-015 -90 -90   XYZ
    dof rx
    limits (0.0 90.0)
  end
  begin
     id 30
     name rthumb
     direction -0.707107 -6.34833e-011 0.707107   
     length 0.787783   
     axis -90 -45 -2.85299e-015   XYZ
    dof rx rz
    limits (-45.0 45.0)
           (-45.0 45.0)
  end
:hierarchy
  begin
    root lhipjoint rhipjoint lowerback
    lhipjoint lfemur
    lfemur ltibia
    ltibia lfoot
    lfoot ltoes
    rhipjoint rfemur
    rfemur rtibia
    rtibia rfoot
    rfoot rtoes
    lowerback upperback
    upperback thorax
    thorax lowerneck lclavicle rclavicle
    lowerneck upperneck
    upperneck head
    lclavicle lhumerus
    lhumerus lradius
    lradius lwrist
    lwrist lhand lthumb
    lhand lfingers
    rclavicle rhumerus
    rhumerus rradius
    rradius rwrist
    rwrist rhand rthumb
    rhand rfingers
  end

#!OML:ASF E:\emotionWalksFemale\Project 1\Capture day 1\Session 1\Female1.ASF
:FULLY-SPECIFIED
:DEGREES
1
root 8.96565 15.1762 42.2149 176.757 -0.95841 179.456
lowerback 7.98463 1.3013 0.72737
upperback -3.35617 1.80254 0.0511189
thorax -8.00317 0.832311 -0.619329
lowerneck -10.1072 0.307136 -4.75171
upperneck 32.0598 -2.18596 2.39892
head 12.2953 -2.35009 1.21335
rclavicle 1.38031e-014 -1.98785e-015
rhumerus -44.8082 23.8612 -102.506
rradius 33.1431
rwrist 12.7804
rhand -2.54815 -55.453
rfingers 7.12502
rthumb 23.1476 -84.0823
lclavicle 1.38031e-014 -1.98785e-015
lhumerus -44.4634 -9.99704 93.9836
lradius 36.948
lwrist -12.211
lhand -7.71295 -32.9565
lfingers 7.12502
lthumb 18.185 -3.78661
rfemur -3.90395 17.3853 26.1212
rtibia 27.919
rfoot -28.4168 -31.0847
rtoes 11.2382
lfemur -6.43135 -21.7412 -26.2662
ltibia 28.721
lfoot -21.1144 21.216
ltoes -33.4333
2
root 8.96764 15.1742 42.2202 176.698 -0.563292 179.468
lowerback 8.13022 1.42881 0.665232
upperback -3.35838 1.97055 0.0794553
thorax -8.09116 0.917856 -0.583606
lowerneck -10.0768 0.307744 -4.72065
upperneck 32.032 -2.18455 2.3777
head 12.277 -2.34766 1.20042
rclavicle -1.18774e-014 -1.78906e-015
rhumerus -44.7737 23.7834 -102.481
rradius 33.0952
rwrist 12.9257
rhand -2.43036 -55.5866
rfingers 7.12502
rthumb 23.2606 -84.2017
lclavicle -1.18774e-014 -1.78906e-015
lhumerus -44.4766 -10.0057 93.9721
lradius 36.9775
lwrist -12.1917
lhand -7.58482 -32.9452
lfingers 7.12502
lthumb 18.3083 -3.78681
rfemur -3.93174 17.3999 26.1107
rtibia 27.9738
rfoot -28.3543 -30.8804
rtoes 10.9847
lfemur -6.36997 -21.5094 -26.2588
ltibia 28.7046
lfoot -21.2316 21.2507
ltoes -33.0044
3
root 8.96658 15.179 42.2179 176.771 -1.00566 179.467
lowerback 8.00857 1.27044 0.648839
upperback -3.37132 1.75488 0.0862549
thorax -8.03753 0.813673 -0.532062
lowerneck -10.0936 0.323091 -4.7238
upperneck 32.0549 -2.15703 2.35505
head 12.2885 -2.34008 1.19559
rclavicle -1.07095e-014 -8.44835e-015
rhumerus -44.7749 23.8153 -102.471
rradius 33.1132
rwrist 12.9126
rhand -2.35248 -55.6066
rfingers 7.12502
rthumb 23.3353 -84.2122
lclavicle -1.07095e-014 -8.44835e-015
lhumerus -44.4362 -9.91584 93.9728
lradius 36.9022
lwrist -12.287
lhand -7.88913 -33.136
lfingers 7.12502
lthumb 18.0155 -3.95037
rfemur -3.91869 17.3319 26.1309
rtibia 27.9536
rfoot -28.4973 -30.9135
rtoes 12.2671
lfemur -6.5026 -21.5347 -26.1933
ltibia 28.7018
lfoot -21.1317 20.8565
ltoes -33.1652
4
root 8.96728 15.1803 42.2219 176.76 -0.585016 179.414
lowerback 8.06222 1.40355 0.599137
upperback -3.35787 1.92686 0.0611503
thorax -8.05307 0.899693 -0.55735
lowerneck -10.112 0.345635 -4.70279
upperneck 32.0401 -2.1192 2.35019
head 12.2842 -2.31879 1.19544
rclavicle -2.2239e-014 -3.8763e-015
rhumerus -44.7752 23.9259 -102.532
rradius 33.1569
rwrist 12.7792
rhand -2.38119 -55.5149
rfingers 7.12502
rthumb 23.3077 -84.124
lclavicle -2.2239e-014 -3.8763e-015
lhumerus -44.3616 -9.87096 93.9221
lradius 36.8199
lwrist -12.3795
lhand -8.11012 -33.1702
lfingers 7.12502
lthumb 17.8029 -3.96512
rfemur -3.98665 17.4302 26.0307
rtibia 27.934
rfoot -28.0972 -30.5108
rtoes 12.5663
lfemur -6.46803 -21.3019 -26.258
ltibia 28.7249
lfoot -21.2759 21.0134
ltoes -32.8986
5
root 8.96658 15.1808 42.2205 176.872 -0.747438 179.442
lowerback 7.88267 1.35227 0.683838
upperback -3.36479 1.86225 0.0248946
thorax -7.9528 0.863076 -0.628575
lowerneck -10.0875 0.349709 -4.6536
upperneck 31.9991 -2.11078 2.32902
head 12.2612 -2.30882 1.18068
rclavicle 6.48535e-015 2.48481e-015
rhumerus -44.8675 24.0211 -102.601
rradius 33.3717
rwrist 12.5644
rhand -2.32505 -55.5677
rfingers 7.12502
rthumb 23.3616 -84.17
lclavicle 6.48535e-015 2.48481e-015
lhumerus -44.3139 -9.89951 93.8729
lradius 36.7804
lwrist -12.4218
lhand -8.05816 -33.2191
lfingers 7.12502
lthumb 17.8529 -4.01857
rfemur -4.05352 17.473 26.0366
rtibia 27.8737
rfoot -28.2219 -30.6413
rtoes 12.8277
lfemur -6.64153 -21.2868 -26.1623
ltibia 28.759
lfoot -21.2624 20.8133
ltoes -32.7753
6
root 8.9671 15.1777 42.2229 176.832 -0.668671 179.466
lowerback 7.94505 1.37021 0.711553
upperback -3.35283 1.89058 0.0243267
thorax -7.97494 0.875579 -0.650437
lowerneck -10.1471 0.361391 -4.66803
upperneck 32.066 -2.09459 2.32313
head 12.3005 -2.30711 1.18204
rclavicle 1.75179e-015 3.67752e-015
rhumerus -44.9517 24.0225 -102.611
rradius 33.5939
rwrist 12.5062
rhand -2.16323 -55.7938
rfingers 7.12502
rthumb 23.5168 -84.3762
lclavicle 1.75179e-015 3.67752e-015
lhumerus -44.2587 -9.89637 93.8369
lradius 36.7473
lwrist -12.4775
lhand -7.95286 -33.278
lfingers 7.12502
lthumb 17.9542 -4.08669
rfemur -4.02538 17.5103 26.0679
rtibia 27.8487
rfoot -28.1623 -30.797
rtoes 12.5924
lfemur -6.61367 -21.4819 -26.177
ltibia 28.7959
lfoot -21.3415 21.0888
ltoes -32.6019
7
root 8.96691 15.1793 42.2256 176.872 -0.776437 179.496
lowerback 8.00527 1.33 0.629833
upperback -3.4095 1.83294 0.105812
thorax -8.07712 0.852394 -0.512745
lowerneck -10.2231 0.376296 -4.68953
upperneck 32.2231 -2.04966 2.18431
head 12.3783 -2.31798 1.13609
rclavicle 5.5287e-015 -1.68967e-015
rhumerus -45.0751 24.0598 -102.546
rradius 33.6804
rwrist 12.5647
rhand -2.05577 -55.9438
rfingers 7.12502
rthumb 23.6199 -84.513
lclavicle 5.5287e-015 -1.68967e-015
lhumerus -44.2772 -9.79733 93.917
lradius 36.7294
lwrist -12.4752
lhand -7.47938 -32.8601
lfingers 7.12502
lthumb 18.4097 -3.71122
rfemur -4.06005 17.4513 26.096
rtibia 27.8137
rfoot -28.1741 -31.2071
rtoes 12.0091
lfemur -6.68878 -21.7263 -26.1439
ltibia 28.8302
lfoot -21.3925 21.1872
ltoes -32.5282
8
root 8.96705 15.1785 42.2301 176.788 -0.641322 179.483
lowerback 8.19003 1.37869 0.586207
upperback -3.41676 1.89663 0.117513
thorax -8.19373 0.885475 -0.490653
lowerneck -10.2132 0.368378 -4.62736
upperneck 32.2474 -2.05202 2.08379
head 12.3851 -2.32692 1.08601
rclavicle -1.24862e-014 -5.56597e-015
rhumerus -45.1329 24.0854 -102.535
rradius 33.7297
rwrist 12.5467
rhand -2.07246 -55.7844
rfingers 7.12502
rthumb 23.6039 -84.3556
lclavicle -1.24862e-014 -5.56597e-015
lhumerus -44.316 -9.84045 93.9612
lradius 36.7272
lwrist -12.5203
lhand -7.32198 -32.3599
lfingers 7.12502
lthumb 18.5611 -3.22542
rfemur -3.99787 17.417 26.0911
rtibia 27.7995
rfoot -28.1469 -31.1322
rtoes 11.4421
lfemur -6.60787 -21.6713 -26.1893
ltibia 28.8521
lfoot -21.4955 21.1711
ltoes -31.9627
9
root 8.96711 15.1804 42.2313 176.791 -0.551798 179.45
lowerback 8.21136 1.41631 0.55888
upperback -3.42212 1.94279 0.100085
thorax -8.21176 0.908776 -0.501369
lowerneck -10.1724 0.355925 -4.6802
upperneck 32.1829 -2.07227 2.15664
head 12.3519 -2.3293 1.12152
rclavicle 3.25261e-014 -1.98785e-016
rhumerus -45.1309 24.0925 -102.535
rradius 33.7404
rwrist 12.541
rhand -2.10738 -55.6613
rfingers 7.12502
rthumb 23.5704 -84.2368
lclavicle 3.25261e-014 -1.98785e-016
lhumerus -44.3348 -9.89484 93.9815
lradius 36.7283
lwrist -12.635
lhand -7.50144 -32.063
lfingers 7.12502
lthumb 18.3885 -2.9121
rfemur -3.99697 17.4845 26.0521
rtibia 27.7772
rfoot -28.1197 -30.9578
rtoes 11.5947
lfemur -6.61224 -21.6478 -26.223
ltibia 28.8637
lfoot -21.5526 21.2435
ltoes -31.5012
10
root 8.96661 15.1837 42.2316 176.807 -0.687631 179.432
lowerback 8.17293 1.3564 0.585696
upperback -3.41852 1.86299 0.0707493
thorax -8.18437 0.86779 -0.534195
lowerneck -10.1059 0.355843 -4.80605
upperneck 32.0888 -2.08767 2.32856
head 12.3024 -2.32535 1.20851
rclavicle -1.6524e-015 3.57812e-015
rhumerus -45.0998 24.153 -102.597
rradius 33.7021
rwrist 12.5257
rhand -2.02477 -55.725
rfingers 7.12502
rthumb 23.6496 -84.2904
lclavicle -1.6524e-015 3.57812e-015
lhumerus -44.3176 -9.88685 93.933
lradius 36.739
lwrist -12.5863
lhand -7.43549 -31.9276
lfingers 7.12502
lthumb 18.4519 -2.78272
rfemur -3.97381 17.5229 26.0463
rtibia 27.7614
rfoot -28.1957 -31.0897
rtoes 11.7643
lfemur -6.66434 -21.4631 -26.1974
ltibia 28.8718
lfoot -21.4991 21.0037
ltoes -31.8911
